<svg width="24" height="24" viewBox="0 0 24 24" fill="none" xmlns="http://www.w3.org/2000/svg">
<path d="M20.5 2.5H3.5L5 19.5L12 21.5L19 19.5L20.5 2.5Z" fill="#0277BD"/>
<path d="M12 4V19.95L17.6 18.35L18.85 4H12Z" fill="#039BE5"/>
<path d="M16.55 6.5H12V8.5H14.45L14.3 10.5H12V12.5H14.2L14.05 14.75L12 15.45V17.55L15.95 16.25L16.3 10.5L16.55 6.5Z" fill="white"/>
<path d="M12 6.5V8.5H7.55002L7.40002 6.5H12ZM9.70002 10.5L9.80002 12.5H12V10.5H9.70002ZM9.90002 13.5H7.90002L8.05002 16.25L12 17.55V15.45L9.95002 14.75L9.90002 13.5Z" fill="#EEEEEE"/>
</svg>
