<svg width="23" height="23" viewBox="0 0 23 23" fill="none" xmlns="http://www.w3.org/2000/svg">
<path d="M11.5 19H8V23H15V19H11.5Z" fill="#FF9800"/>
<rect x="18" width="5" height="15" rx="2.5" fill="#473F3A"/>
<rect width="5" height="15" rx="2.5" fill="#473F3A"/>
<path d="M14.5 21.1225V22.5H12.8272L12.9668 22.2341C13.6375 21.8951 14.1338 21.5094 14.5 21.1225Z" fill="white" stroke="#E5E5E5"/>
<path d="M11 23L10.4 21.8571C8 20.7143 8 19 8 19V23H11Z" fill="#E5E5E5"/>
<path d="M11.2153 1.05269L5.481 3.26613C5.19045 3.3784 5 3.64998 5 3.9523V13.9269C5 16.0099 6.053 17.9624 7.82165 19.1566L9.7736 20.475C10.8103 21.175 12.1896 21.175 13.2264 20.475L15.1783 19.1566C16.947 17.9618 18 16.0099 18 13.9269V3.9523C18 3.64998 17.8095 3.3784 17.5183 3.26613L11.784 1.05269C11.602 0.982438 11.3979 0.982438 11.2153 1.05269Z" fill="#FFB74D"/>
<path d="M21 1L11.5616 1C11.5616 1 9.67395 5.07546 12.8201 7.79245C15.9662 10.5094 19.1123 7.79245 19.1123 7.79245L21 1Z" fill="#473F3A"/>
<path d="M2 1L11.4384 1C11.4384 1 13.3261 5.07546 10.1799 7.79245C7.03381 10.5094 3.88767 7.79245 3.88767 7.79245L2 1Z" fill="#473F3A"/>
</svg>
