<svg width="25" height="24" viewBox="0 0 25 24" fill="none" xmlns="http://www.w3.org/2000/svg">
<path d="M7.29163 15H17.7083V21H7.29163V15Z" fill="#BF360C"/>
<path d="M12.502 18.498H8.8562V22.498H16.1479V18.498H12.502Z" fill="#FF9800"/>
<path d="M12.2718 5.08747L7.67704 6.85197C7.44423 6.94147 7.29163 7.15797 7.29163 7.39897V15.3505C7.29163 17.011 8.13538 18.5675 9.55256 19.5195L11.1166 20.5705C11.9474 21.1285 13.0526 21.1285 13.8833 20.5705L15.4474 19.5195C16.8645 18.567 17.7083 17.011 17.7083 15.3505V7.39897C17.7083 7.15797 17.5557 6.94147 17.3224 6.85197L12.7276 5.08747C12.5817 5.03147 12.4182 5.03147 12.2718 5.08747Z" fill="#FFB74D"/>
<path d="M13.5437 2.49799C20.3125 2.49799 20.8703 7.56299 21.3562 9.99999C21.7901 12.176 23.9583 13.7845 23.9583 16C23.9583 20.5 17.7104 20.998 17.7104 20.998C17.7104 20.998 17.7104 10.348 17.7104 10.148C17.6583 6.89799 15.627 5.99799 12.502 5.99799C9.37704 5.99799 7.34579 6.94799 7.29371 10.148C7.29371 10.348 7.29371 20.998 7.29371 20.998C7.29371 20.998 1.04163 20.5 1.04163 16C1.04163 13.5 3.08902 12.274 3.64579 9.99999C4.27756 7.41849 5.20829 1.49799 11.4604 1.49799C13.0229 1.49799 13.5437 2.49799 13.5437 2.49799Z" fill="#E64A19"/>
<path d="M13.0209 5C13.0209 5 12.5 8 9.89587 10.5C8.42296 11.914 7.29171 12.5 7.29171 14L6.77087 10.5V5H13.0209Z" fill="#E64A19"/>
<path d="M11.4583 22.5L10.9375 21.5C8.85413 20.5 8.85413 19 8.85413 19V22.5H11.4583Z" fill="#424242"/>
<path d="M13.5416 22.5L14.0625 21.5C16.1458 20.5 16.1458 19 16.1458 19V22.5H13.5416Z" fill="#424242"/>
</svg>
