<svg width="25" height="23" viewBox="0 0 25 23" fill="none" xmlns="http://www.w3.org/2000/svg">
<path d="M12.5 17.25H8.85413V21.0833H16.1458V17.25H12.5Z" fill="#FF9800"/>
<path d="M12.5 6.22916L7.29163 6.70832C7.29163 8.38684 7.29579 16.364 7.29579 16.364C7.29579 16.7555 7.47236 17.1278 7.78069 17.3856L11.4781 19.7786C12.0739 20.2414 12.927 20.2414 13.5224 19.7786L17.2198 17.3856C17.5276 17.1278 17.7047 16.7555 17.7047 16.364C17.7047 16.364 17.7088 8.38684 17.7088 6.70832L12.5 6.22916Z" fill="#FFB74D"/>
<path d="M6.25 6.22916H17.7083V8.14582H6.25V6.22916Z" fill="#FDD835"/>
<path d="M17.1875 16.0521C17.1875 14.6146 17.7083 14.8542 17.7083 13.4167C17.7083 12.4583 17.1875 11.9792 17.1875 11.5C17.1875 10.5417 17.7083 10.0625 17.7083 9.10417C17.7083 6.00875 16.5312 5.27083 12.5 5.27083C8.46871 5.27083 7.29163 6.00875 7.29163 9.10417C7.29163 10.0625 7.81246 10.5417 7.81246 11.5C7.81246 11.9792 7.29163 12.4583 7.29163 13.4167C7.29163 14.8542 7.81246 14.6146 7.81246 16.0521C7.81246 16.6702 8.06246 17.2644 8.50517 17.7244L8.85413 18.079V21.0833H1.04163C1.04163 21.0833 1.04163 20.0292 1.69788 19.1235C1.89579 18.8504 1.92183 18.5006 1.78121 18.1988C1.41663 17.4321 1.48954 16.5217 2.10933 15.779C2.32288 15.5202 2.42183 15.1896 2.28642 14.8877C1.93746 14.0923 2.01558 13.134 2.66142 12.3721C2.87496 12.1181 2.92183 11.7875 2.80204 11.4904C2.45308 10.6375 2.55725 9.64563 3.31767 8.89813C3.50517 8.71604 3.61454 8.47167 3.60413 8.2225C3.58329 7.50375 3.76558 5.98479 5.52079 4.91146C5.65621 4.83 5.77079 4.72458 5.85413 4.6C6.97913 2.875 8.44267 1.4375 11.4583 1.4375C13.0208 1.4375 13.5416 2.39583 13.5416 2.39583C19.2708 2.39583 20.8333 7.1875 20.8333 8.14583C20.8333 8.395 20.9739 8.71604 21.1614 8.89813C21.927 9.65521 22.552 10.6615 22.1875 11.5192C22.0625 11.8115 22.1458 12.1325 22.3489 12.3865C22.9843 13.1483 23.0625 14.0971 22.7083 14.8877C22.5781 15.1896 22.677 15.525 22.8906 15.779C23.5104 16.5217 23.5833 17.4321 23.2187 18.1988C23.0781 18.5006 23.1041 18.8504 23.302 19.1235C23.9583 20.0292 23.9583 21.0833 23.9583 21.0833H16.1458V18.079L16.4947 17.7244C16.9375 17.2644 17.1875 16.6702 17.1875 16.0521Z" fill="#424242"/>
<path d="M7.8125 3.83334H17.1875V6.22918H7.8125V3.83334Z" fill="#424242"/>
<path d="M14.9256 6.22916C14.373 6.22916 13.8433 6.02743 13.4527 5.66757L12.5 4.79166L11.548 5.66757C11.1568 6.02743 10.6271 6.22916 10.0745 6.22916H10.0334L8.86255 8.14582H10.075C10.6277 8.14582 11.1573 8.34755 11.548 8.70741L12.5 9.58332L13.4521 8.70741C13.8428 8.34803 14.373 8.14582 14.925 8.14582H16.1537L14.9662 6.22916H14.9256Z" fill="#FDD835"/>
<path d="M12.5083 8.00065L13.4687 8.46544L13.2854 7.48123L14.0625 6.78404L12.9885 6.64077L12.5083 5.74521L12.0276 6.64077L10.9536 6.78404L11.7307 7.48123L11.5474 8.46544L12.5083 8.00065Z" fill="#B71C1C"/>
</svg>
